<svg width="500" height="496" viewBox="0 0 500 496" fill="none" xmlns="http://www.w3.org/2000/svg">
<path d="M417.84 144V128H433.84V104C433.84 90.768 423.072 80 409.84 80C405.432 80 401.84 76.408 401.84 72V64H409.84C414.248 64 417.84 67.592 417.84 72H433.84C433.824 67.0528 432.278 62.2317 429.413 58.1983C426.548 54.1648 422.506 51.1166 417.84 49.472V32H401.84V48H385.84V72C385.84 85.232 396.608 96 409.84 96C414.248 96 417.84 99.592 417.84 104V112H409.84C405.432 112 401.84 108.408 401.84 104H385.84C385.84 114.416 392.552 123.216 401.84 126.528V144H417.84ZM461.248 238.584C459.958 230.104 455.682 222.363 449.19 216.756C442.698 211.148 434.418 208.043 425.84 208C417.262 208.043 408.982 211.148 402.49 216.756C395.998 222.363 391.722 230.104 390.432 238.584L366.16 403.656L353.024 364.24C347.392 347.344 331.648 336 313.84 336C296.032 336 280.288 347.344 274.664 364.232L258.768 411.928L231.976 278.176C227.592 256.272 208.184 240.368 185.848 240.368C163.512 240.368 144.104 256.272 139.72 278.176L121.384 369.728L110.576 317.856C106.96 300.552 91.512 288 73.84 288C56.168 288 40.72 300.552 37.112 317.856L0 496H499.104L461.248 238.584ZM406.264 240.912C407.68 231.272 416.096 224 425.84 224C435.584 224 444 231.272 445.416 240.912L449.432 268.224C448.816 267.648 448.2 267.072 447.472 266.344C443.112 261.976 437.128 256 425.816 256C414.504 256 408.528 261.976 404.168 266.344C403.542 266.969 402.904 267.582 402.256 268.184L406.264 240.912ZM399.424 287.4C407.2 285.832 411.912 281.232 415.488 277.656C419.408 273.736 421.328 272 425.816 272C430.32 272 432.248 273.736 436.168 277.656C439.752 281.232 444.464 285.84 452.256 287.408L480.576 480H391.608L377.376 437.312L399.424 287.4ZM289.84 369.296C293.288 358.952 302.936 352 313.84 352C324.744 352 334.392 358.952 337.84 369.296L348.016 399.824C347.297 399.944 346.569 400.003 345.84 400C341.336 400 339.408 398.264 335.48 394.344C331.112 389.976 325.128 384 313.816 384C302.504 384 296.528 389.976 292.168 394.344C288.248 398.264 286.328 400 281.84 400C281.04 400 280.32 399.936 279.672 399.824L289.84 369.296ZM274.608 414.992C276.888 415.608 279.256 416 281.84 416C293.152 416 299.128 410.024 303.488 405.656C307.408 401.736 309.328 400 313.816 400C318.32 400 320.248 401.736 324.168 405.656C328.536 410.024 334.52 416 345.84 416C348.424 416 350.792 415.608 353.072 414.992L374.736 480H272.392L265.088 443.544L274.608 414.992ZM185.84 256.376C193.01 256.393 199.955 258.884 205.501 263.429C211.047 267.974 214.854 274.293 216.28 281.32L220.744 303.616C219.789 303.873 218.805 304.002 217.816 304C213.312 304 211.384 302.264 207.456 298.344C203.08 293.976 197.104 288 185.784 288C174.472 288 168.496 293.976 164.136 298.344C160.216 302.264 158.296 304 153.808 304C152.688 304 151.776 303.848 150.928 303.632L155.4 281.32C156.823 274.292 160.63 267.97 166.176 263.425C171.723 258.88 178.669 256.39 185.84 256.376ZM73.84 304C78.7804 304.016 83.5661 305.724 87.3992 308.841C91.2324 311.958 93.8812 316.295 94.904 321.128L101.112 350.928C99.328 350.032 97.712 348.576 95.48 346.344C91.112 341.976 85.128 336 73.816 336C62.504 336 56.528 341.976 52.168 346.344C49.952 348.568 48.344 350.016 46.576 350.912L52.784 321.12C53.8054 316.288 56.453 311.953 60.2849 308.837C64.1168 305.721 68.9013 304.014 73.84 304ZM19.68 480L43.032 367.92C53.544 367.504 59.288 361.856 63.488 357.656C67.4 353.736 69.328 352 73.816 352C78.32 352 80.248 353.736 84.168 357.656C88.376 361.864 94.128 367.504 104.648 367.92L128 480H19.68ZM129.688 409.664L147.792 319.296C149.704 319.72 151.68 320 153.808 320C165.12 320 171.096 314.024 175.456 309.656C179.376 305.736 181.296 304 185.784 304C190.288 304 192.216 305.736 196.136 309.656C200.512 314.024 206.496 320 217.816 320C219.968 320 221.96 319.712 223.888 319.288L256.08 480H144.344L129.688 409.664Z" fill="url(#paint0_linear_15339_113)"/>
<path d="M73.8398 272C91.4878 272 105.84 257.648 105.84 240C105.84 238.352 105.592 236.776 105.352 235.192L160.648 211.496C166.512 219.048 175.568 224 185.84 224C193.076 223.969 200.083 221.462 205.696 216.896L284.272 275.832C282.669 279.689 281.843 283.824 281.84 288C281.84 305.648 296.192 320 313.84 320C331.488 320 345.84 305.648 345.84 288C345.84 279.168 342.24 271.16 336.432 265.368L390.328 173.752C396.616 175.176 403.128 176 409.84 176C458.36 176 497.84 136.52 497.84 88C497.84 39.48 458.36 0 409.84 0C361.32 0 321.84 39.48 321.84 88C321.84 124.056 343.656 155.08 374.76 168.664L322.576 257.368C319.742 256.504 316.802 256.044 313.84 256C306.304 256 299.456 258.728 293.976 263.104L215.4 204.176C217.008 200.318 217.838 196.18 217.84 192C217.84 174.352 203.488 160 185.84 160C168.192 160 153.84 174.352 153.84 192C153.84 193.648 154.088 195.224 154.328 196.808L99.0318 220.504C93.1678 212.952 84.1118 208 73.8398 208C56.1918 208 41.8398 222.352 41.8398 240C41.8398 257.648 56.1918 272 73.8398 272ZM337.84 88C337.84 48.304 370.144 16 409.84 16C449.536 16 481.84 48.304 481.84 88C481.84 127.696 449.536 160 409.84 160C370.144 160 337.84 127.696 337.84 88ZM313.84 272C322.664 272 329.84 279.176 329.84 288C329.84 296.824 322.664 304 313.84 304C305.016 304 297.84 296.824 297.84 288C297.84 279.176 305.016 272 313.84 272ZM185.84 176C194.664 176 201.84 183.176 201.84 192C201.84 200.824 194.664 208 185.84 208C177.016 208 169.84 200.824 169.84 192C169.84 183.176 177.016 176 185.84 176ZM73.8398 224C82.6638 224 89.8398 231.176 89.8398 240C89.8398 248.824 82.6638 256 73.8398 256C65.0158 256 57.8398 248.824 57.8398 240C57.8398 231.176 65.0158 224 73.8398 224Z" fill="url(#paint1_linear_15339_113)"/>
<defs>
<linearGradient id="paint0_linear_15339_113" x1="249.552" y1="32" x2="73.7202" y2="472.202" gradientUnits="userSpaceOnUse">
<stop stop-color="#115EF5"/>
<stop offset="1" stop-color="#D305F4"/>
</linearGradient>
<linearGradient id="paint1_linear_15339_113" x1="269.84" y1="0" x2="172.545" y2="322.689" gradientUnits="userSpaceOnUse">
<stop stop-color="#115EF5"/>
<stop offset="1" stop-color="#D305F4"/>
</linearGradient>
</defs>
</svg>
