<svg width="496" height="496" viewBox="0 0 496 496" fill="none" xmlns="http://www.w3.org/2000/svg">
<path d="M475.032 208.304C488.676 186.652 495.943 161.593 496 136C496 61.008 434.992 0 360 0C293.184 0 236.76 48.52 226.04 113.808C206.35 117.032 187.612 124.558 171.16 135.848L103.312 68L113.08 58.232C120.285 51.0259 129.314 45.9155 139.2 43.448L206.928 26.512L169.136 7.616C159.102 2.62289 148.049 0.0164099 136.84 0H130.592C111.452 0.0520572 93.1054 7.65295 79.5363 21.152L68.0003 32.688L51.3203 16H47.9683C39.4323 16 31.4083 19.328 25.3683 25.36C22.3845 28.3264 20.0198 31.856 18.4116 35.7439C16.8035 39.6319 15.9838 43.8006 16.0003 48.008V51.32L32.6883 68L21.1523 79.536C14.424 86.2251 9.08987 94.1829 5.45903 102.948C1.82818 111.714 -0.0272233 121.112 0.000301818 130.6C0.000301818 146.12 5.1363 161.504 14.4483 173.928L37.4883 204.656L45.2083 142.856C46.7831 130.459 52.4208 118.933 61.2403 110.08L68.0003 103.312L135.816 171.128C128.082 182.453 122.11 194.885 118.104 208H24.0003C10.7683 208 0.000301818 218.768 0.000301818 232V248C0.000301818 258.416 6.7123 267.216 16.0003 270.528V312C16.0181 332.419 21.2416 352.497 31.1774 370.336C41.1132 388.175 55.4332 403.187 72.7843 413.952C72.288 417.279 72.0261 420.636 72.0003 424C72.0003 463.696 104.296 496 144 496C181 496 211.536 467.944 215.528 432H280.472C284.464 467.944 315 496 352 496C391.704 496 424 463.696 424 424C424 420.584 423.68 417.24 423.216 413.944C440.562 403.175 454.878 388.164 464.813 370.327C474.748 352.491 479.975 332.417 480 312V270.528C484.666 268.883 488.709 265.835 491.573 261.802C494.438 257.768 495.984 252.947 496 248V232C495.982 226.177 493.843 220.56 489.984 216.199C486.125 211.838 480.81 209.031 475.032 208.304ZM368 96C376.824 96 384 103.176 384 112C384 120.824 376.824 128 368 128H352V96H368ZM352 144H368C376.824 144 384 151.176 384 160C384 168.824 376.824 176 368 176H363.328C359.926 170.551 356.141 165.351 352 160.44V144ZM377.896 208C376.213 202.413 374.171 196.94 371.784 191.616C387.632 189.72 400 176.352 400 160C400 150.4 395.664 141.872 388.944 136C392.4 133.026 395.176 129.344 397.083 125.203C398.991 121.062 399.986 116.559 400 112C400 94.352 385.648 80 368 80V64H352V80H336V144.392C318.418 129.462 297.323 119.256 274.704 114.736C279.343 95.6397 290.286 78.6654 305.763 66.5558C321.241 54.4463 340.349 47.9089 360 48C408.52 48 448 87.48 448 136C448 164.832 433.888 191.536 410.272 208H377.896ZM463.592 128C461.919 106.016 453.264 85.1412 438.888 68.424L450.2 57.112C467.538 76.8592 477.87 101.778 479.592 128H463.592ZM427.576 57.112C410.859 42.7367 389.985 34.0809 368 32.408V16.408C394.221 18.134 419.139 28.4657 438.888 45.8L427.576 57.112ZM352 32.36C329.964 33.9499 309.017 42.5603 292.232 56.928L281.024 45.72C300.811 28.3976 325.758 18.0837 352 16.376V32.36ZM463.504 144H479.672C478.214 167.214 469.928 189.48 455.856 208H434.784C451.533 190.672 461.694 168.031 463.504 144ZM269.768 57.08L280.984 68.296C270.158 81.0152 262.567 96.1626 258.856 112.448C255.272 112.168 251.656 112 248 112C246.152 112 244.336 112.16 242.496 112.232C246.607 91.7792 256.01 72.7624 269.768 57.08ZM32.2803 44.968C32.8723 41.848 34.3843 38.976 36.6803 36.68C38.9763 34.384 41.8483 32.872 44.9683 32.28L56.6883 44L44.0003 56.688L32.2803 44.968ZM49.9203 98.768C38.5897 110.14 31.348 124.947 29.3283 140.872L26.5203 163.336C19.7033 153.779 16.0268 142.339 16.0003 130.6C16.0003 115.584 21.8403 101.472 32.4643 90.856L90.8563 32.464C101.417 21.9573 115.696 16.0411 130.592 16H136.84C145.184 16 153.536 17.896 161.064 21.488L135.312 27.928C122.614 31.1022 111.017 37.6667 101.76 46.92L49.9203 98.768ZM79.3123 92L92.0003 79.312L158.416 145.728C153.916 149.675 149.68 153.913 145.736 158.416L79.3123 92ZM248 128C299.28 128 344.408 160.416 361.168 208H343.952C327.904 169.512 290.08 144 248 144C205.92 144 168.104 169.512 152.048 208H134.832C143.098 184.594 158.422 164.329 178.692 150C198.961 135.671 223.177 127.984 248 128ZM326.352 208H169.656C184.536 178.896 214.688 160 248 160C281.32 160 311.472 178.896 326.352 208ZM144 480C113.128 480 88.0003 454.88 88.0003 424C88.0003 393.12 113.128 368 144 368C174.872 368 200 393.12 200 424C200 454.88 174.872 480 144 480ZM352 480C321.128 480 296 454.88 296 424C296 393.12 321.128 368 352 368C382.872 368 408 393.12 408 424C408 454.88 382.872 480 352 480ZM464 312C464 346.36 446.928 378.328 418.928 397.632C408.384 370.952 382.392 352 352 352C315 352 284.464 380.056 280.472 416H215.528C211.536 380.056 181 352 144 352C113.608 352 87.6163 370.952 77.0723 397.632C63.1868 388.075 51.8302 375.289 43.9791 360.373C36.1279 345.456 32.0172 328.856 32.0003 312V272H464V312ZM480 248C480 252.408 476.416 256 472 256H24.0003C19.5843 256 16.0003 252.408 16.0003 248V232C16.0003 227.592 19.5843 224 24.0003 224H472C476.416 224 480 227.592 480 232V248Z" fill="url(#paint0_linear_15339_125)"/>
<path d="M144 384C121.944 384 104 401.944 104 424C104 446.056 121.944 464 144 464C166.056 464 184 446.056 184 424C184 401.944 166.056 384 144 384ZM144 448C130.768 448 120 437.232 120 424C120 410.768 130.768 400 144 400C157.232 400 168 410.768 168 424C168 437.232 157.232 448 144 448ZM352 384C329.944 384 312 401.944 312 424C312 446.056 329.944 464 352 464C374.056 464 392 446.056 392 424C392 401.944 374.056 384 352 384ZM352 448C338.768 448 328 437.232 328 424C328 410.768 338.768 400 352 400C365.232 400 376 410.768 376 424C376 437.232 365.232 448 352 448ZM78.448 355.208C69.0317 342.775 63.956 327.596 64 312V304H120V288H48V312C48 331.216 54.112 349.496 65.664 364.832L78.448 355.208ZM136 288H152V304H136V288ZM447.488 321.528L431.584 319.808C429.977 334.845 423.631 348.982 413.464 360.176L425.336 370.896C437.762 357.201 445.518 339.915 447.488 321.528ZM432 288H448V304H432V288ZM168 288H184V304H168V288Z" fill="url(#paint1_linear_15339_125)"/>
<defs>
<linearGradient id="paint0_linear_15339_125" x1="395" y1="-1.38689e-05" x2="122.5" y2="453" gradientUnits="userSpaceOnUse">
<stop stop-color="#1143F5"/>
<stop offset="1" stop-color="#D80DF9"/>
</linearGradient>
<linearGradient id="paint1_linear_15339_125" x1="366.548" y1="288" x2="312.401" y2="492.576" gradientUnits="userSpaceOnUse">
<stop stop-color="#1143F5"/>
<stop offset="1" stop-color="#D80DF9"/>
</linearGradient>
</defs>
</svg>
