<svg width="496" height="496" viewBox="0 0 496 496" fill="none" xmlns="http://www.w3.org/2000/svg">
<path d="M496 136C496 61.008 434.992 0 360 0C287.712 0 228.584 56.736 224.408 128H176V120C176 97.944 158.056 80 136 80H40C17.944 80 0 97.944 0 120V184C0 206.056 17.944 224 40 224H136C158.056 224 176 206.056 176 184V144H224.408C226.173 174.461 238.186 203.43 258.496 226.2L180.688 304H40C17.944 304 0 321.944 0 344V456C0 478.056 17.944 496 40 496H184C206.056 496 224 478.056 224 456V344C223.987 336.216 221.705 328.605 217.434 322.098C213.163 315.59 207.088 310.469 199.952 307.36L269.808 237.504C292.579 257.812 321.548 269.826 352.008 271.592V320H312.008C289.952 320 272.008 337.944 272.008 360V424C272.008 446.056 289.952 464 312.008 464H408.008C430.064 464 448.008 446.056 448.008 424V360C448.008 337.944 430.064 320 408.008 320H368.008V271.592C439.264 267.416 496 208.288 496 136ZM77.36 171.832C75.6787 170.353 74.3313 168.533 73.4072 166.493C72.483 164.453 72.0034 162.239 72 160V144C72 139.568 73.768 135.448 76.992 132.4C78.5693 130.899 80.4368 129.737 82.4798 128.984C84.5228 128.232 86.6981 127.905 88.872 128.024C97.216 128.464 104 136.232 104 145.36V160C104 164.512 102.096 168.72 98.64 171.832L96 174.216V188.944L123.576 202.736C124.612 203.255 125.522 203.996 126.241 204.906C126.96 205.815 127.47 206.872 127.736 208H48.264C48.5299 206.872 49.0402 205.815 49.759 204.906C50.4779 203.996 51.3876 203.255 52.424 202.736L80 188.944V174.216L77.36 171.832ZM160 184C159.983 188.988 158.411 193.846 155.501 197.898C152.591 201.949 148.489 204.991 143.768 206.6C143.245 202.736 141.783 199.058 139.51 195.889C137.236 192.721 134.221 190.158 130.728 188.424L113.16 179.64C117.552 174.04 120 167.12 120 160V145.36C120 127.56 106.696 112.928 89.704 112.04C80.912 111.704 72.4 114.688 65.968 120.792C62.8251 123.787 60.3215 127.387 58.6083 131.376C56.8951 135.364 56.0078 139.659 56 144V160C56 167.12 58.448 174.04 62.832 179.64L45.264 188.424C41.7704 190.157 38.7548 192.72 36.4815 195.889C34.2082 199.058 32.7463 202.735 32.224 206.6C27.5047 204.989 23.4055 201.946 20.4974 197.895C17.5893 193.844 16.0172 188.987 16 184V120C16 106.768 26.768 96 40 96H136C149.232 96 160 106.768 160 120V184ZM349.36 411.832C347.679 410.353 346.331 408.533 345.407 406.493C344.483 404.453 344.003 402.239 344 400V384C344 379.568 345.768 375.448 348.992 372.4C350.566 370.894 352.433 369.729 354.477 368.976C356.521 368.223 358.698 367.899 360.872 368.024C369.216 368.464 376 376.232 376 385.36V400C376 404.512 374.096 408.72 370.64 411.832L368 414.216V428.944L395.576 442.736C396.612 443.255 397.522 443.996 398.241 444.906C398.96 445.815 399.47 446.872 399.736 448H320.264C320.53 446.872 321.04 445.815 321.759 444.906C322.478 443.996 323.388 443.255 324.424 442.736L352 428.944V414.216L349.36 411.832ZM432 360V424C431.983 428.988 430.411 433.846 427.501 437.898C424.591 441.949 420.489 444.991 415.768 446.6C415.245 442.736 413.783 439.058 411.51 435.889C409.236 432.721 406.221 430.158 402.728 428.424L385.16 419.64C389.552 414.04 392 407.12 392 400V385.36C392 367.56 378.696 352.928 361.704 352.04C357.362 351.824 353.021 352.489 348.942 353.993C344.864 355.497 341.131 357.809 337.968 360.792C334.825 363.787 332.322 367.387 330.608 371.376C328.895 375.364 328.008 379.659 328 384V400C328 407.12 330.448 414.04 334.832 419.64L317.264 428.424C313.77 430.157 310.755 432.72 308.482 435.889C306.208 439.058 304.746 442.735 304.224 446.6C299.505 444.989 295.406 441.946 292.497 437.895C289.589 433.844 288.017 428.987 288 424V360C288 346.768 298.768 336 312 336H408C421.232 336 432 346.768 432 360ZM100.024 412.648C92.496 408.264 88 400.544 88 392V376C88 369.288 90.84 362.84 95.792 358.304C98.2456 356.032 101.152 354.304 104.32 353.234C107.488 352.164 110.847 351.776 114.176 352.096C126.408 353.16 136 364.392 136 377.664V392C136 400.544 131.504 408.264 123.976 412.648L120 414.96V438.032L158.72 449.104C163.689 450.538 168.059 453.545 171.174 457.673C174.29 461.801 175.983 466.828 176 472V480H48V472C48 461.424 55.104 452.008 65.28 449.104L104 438.032V414.96L100.024 412.648ZM208 344V456C207.984 460.947 206.438 465.768 203.573 469.802C200.708 473.835 196.666 476.883 192 478.528V472C191.971 463.354 189.141 454.95 183.934 448.048C178.728 441.145 171.425 436.116 163.12 433.712L136 425.968V423.832C140.943 420.121 144.96 415.316 147.735 409.794C150.511 404.271 151.971 398.181 152 392V377.664C152 356.16 135.992 337.928 115.552 336.16C110.016 335.673 104.44 336.342 99.1764 338.124C93.9129 339.906 89.0772 342.762 84.976 346.512C80.892 350.263 77.6302 354.82 75.3968 359.896C73.1633 364.971 72.0067 370.455 72 376V392C72 404.504 78.032 416.32 88 423.832V425.968L60.88 433.712C52.5748 436.116 45.272 441.145 40.0655 448.048C34.8591 454.95 32.0292 463.354 32 472V478.528C27.3341 476.883 23.2915 473.835 20.4269 469.802C17.5622 465.768 16.0159 460.947 16 456V344C16 330.768 26.768 320 40 320H184C197.232 320 208 330.768 208 344ZM240 136C240 69.832 293.832 16 360 16C426.168 16 480 69.832 480 136C480 202.168 426.168 256 360 256C293.832 256 240 202.168 240 136Z" fill="url(#paint0_linear_15339_108)"/>
<path d="M368 208V192C385.648 192 400 177.648 400 160C400.002 155.457 399.035 150.967 397.163 146.828C395.291 142.689 392.557 138.998 389.144 136C392.557 133.002 395.291 129.311 397.163 125.172C399.035 121.033 400.002 116.543 400 112C400 94.352 385.648 80 368 80V64H352V80H336V192H352V208H368ZM352 96H368C376.824 96 384 103.176 384 112C384 120.824 376.824 128 368 128H352V96ZM352 144H368C376.824 144 384 151.176 384 160C384 168.824 376.824 176 368 176H352V144Z" fill="url(#paint1_linear_15339_108)"/>
<path d="M464 136C464 78.656 417.344 32 360 32C302.656 32 256 78.656 256 136C256 193.344 302.656 240 360 240C417.344 240 464 193.344 464 136ZM272 136C272 87.48 311.48 48 360 48C408.52 48 448 87.48 448 136C448 184.52 408.52 224 360 224C311.48 224 272 184.52 272 136Z" fill="url(#paint2_linear_15339_108)"/>
<defs>
<linearGradient id="paint0_linear_15339_108" x1="93" y1="151.5" x2="462.5" y2="383.5" gradientUnits="userSpaceOnUse">
<stop stop-color="#D511F5"/>
<stop offset="0.866489" stop-color="#180AB9"/>
</linearGradient>
<linearGradient id="paint1_linear_15339_108" x1="348" y1="107.984" x2="409.671" y2="125.193" gradientUnits="userSpaceOnUse">
<stop stop-color="#D511F5"/>
<stop offset="0.866489" stop-color="#180AB9"/>
</linearGradient>
<linearGradient id="paint2_linear_15339_108" x1="295" y1="95.5323" x2="449.952" y2="192.823" gradientUnits="userSpaceOnUse">
<stop stop-color="#D511F5"/>
<stop offset="0.866489" stop-color="#180AB9"/>
</linearGradient>
</defs>
</svg>
