<svg width="492" height="469" viewBox="0 0 492 469" fill="none" xmlns="http://www.w3.org/2000/svg">
<path d="M301.672 242.2H317.672V226.2H325.672C328.408 226.2 331.088 225.92 333.672 225.392V242.2H349.672V217.992C359.328 210.68 365.672 199.208 365.672 186.2C365.671 179.988 364.222 173.862 361.441 168.307C358.659 162.752 354.622 157.922 349.648 154.2C354.622 150.478 358.659 145.648 361.441 140.093C364.222 134.539 365.671 128.412 365.672 122.2C365.672 109.184 359.328 97.7122 349.672 90.4082V66.2002H333.672V83.0082C331.039 82.4706 328.359 82.1999 325.672 82.2002H317.672V66.2002H301.672V82.2002H285.672V226.2H301.672V242.2ZM301.672 98.2002H325.672C338.904 98.2002 349.672 108.968 349.672 122.2C349.672 135.432 338.904 146.2 325.672 146.2H301.672V98.2002ZM301.672 162.2H325.672C338.904 162.2 349.672 172.968 349.672 186.2C349.672 199.432 338.904 210.2 325.672 210.2H301.672V162.2ZM165.672 258.2C178.904 258.2 189.672 268.968 189.672 282.2H205.672C205.657 272.984 202.466 264.055 196.638 256.917C190.809 249.778 182.699 244.866 173.672 243.008V226.2H157.672V242.2H125.672V282.2C125.672 304.256 143.616 322.2 165.672 322.2C178.904 322.2 189.672 332.968 189.672 346.2V370.2H165.672C152.44 370.2 141.672 359.432 141.672 346.2H125.672C125.687 355.416 128.877 364.345 134.706 371.484C140.535 378.622 148.645 383.534 157.672 385.392V402.2H173.672V386.2H205.672V346.2C205.672 324.144 187.728 306.2 165.672 306.2C152.44 306.2 141.672 295.432 141.672 282.2V258.2H165.672Z" fill="url(#paint0_linear_15339_117)"/>
<path d="M325.672 274.2C391.84 274.2 445.672 220.368 445.672 154.2C445.672 88.0322 391.84 34.2002 325.672 34.2002C259.504 34.2002 205.672 88.0322 205.672 154.2C205.672 220.368 259.504 274.2 325.672 274.2ZM325.672 50.2002C383.016 50.2002 429.672 96.8562 429.672 154.2C429.672 211.544 383.016 258.2 325.672 258.2C268.328 258.2 221.672 211.544 221.672 154.2C221.672 96.8562 268.328 50.2002 325.672 50.2002Z" fill="url(#paint1_linear_15339_117)"/>
<path d="M317.392 305.784C320.152 305.928 322.88 306.2 325.672 306.2C409.488 306.2 477.672 238.016 477.672 154.2C477.672 70.3842 409.488 2.2002 325.672 2.2002C241.856 2.2002 173.672 70.3842 173.672 154.2C173.672 156.992 173.944 159.72 174.088 162.48C171.286 162.298 168.479 162.205 165.672 162.2C81.8559 162.2 13.6719 230.384 13.6719 314.2C13.6719 398.016 81.8559 466.2 165.672 466.2C249.488 466.2 317.672 398.016 317.672 314.2C317.672 311.488 317.576 308.688 317.392 305.784ZM325.672 18.2002C400.664 18.2002 461.672 79.2082 461.672 154.2C461.672 229.192 400.664 290.2 325.672 290.2C250.68 290.2 189.672 229.192 189.672 154.2C189.672 79.2082 250.68 18.2002 325.672 18.2002ZM269.672 314.2C269.672 371.544 223.016 418.2 165.672 418.2C108.328 418.2 61.6719 371.544 61.6719 314.2C61.6719 256.856 108.328 210.2 165.672 210.2C172.048 210.2 178.632 211.008 185.264 212.296C200.769 249.517 230.355 279.103 267.576 294.608C268.864 301.224 269.672 307.808 269.672 314.2ZM165.672 450.2C90.6799 450.2 29.6719 389.192 29.6719 314.2C29.6719 239.208 90.6799 178.2 165.672 178.2C168.84 178.2 172.264 178.4 175.832 178.696C176.736 184.256 177.912 189.712 179.408 195.048C174.85 194.49 170.263 194.207 165.672 194.2C99.5039 194.2 45.6719 248.032 45.6719 314.2C45.6719 380.368 99.5039 434.2 165.672 434.2C231.84 434.2 285.672 380.368 285.672 314.2C285.672 309.68 285.384 305.088 284.824 300.464C290.16 301.96 295.624 303.136 301.176 304.04C301.472 307.592 301.672 311.008 301.672 314.2C301.672 389.192 240.664 450.2 165.672 450.2Z" fill="url(#paint2_linear_15339_117)"/>
<path d="M491.328 327.856L480.016 316.544L370.36 426.2L381.448 437.288L327.864 448L338.584 394.424L349.672 405.512L459.328 295.856L448.016 284.544L349.672 382.888L328.76 361.976L307.48 468.4L413.896 447.112L392.984 426.2L491.328 327.856ZM110.056 31.112L163.632 20.4L152.912 73.976L141.84 62.888L32.0161 172.536L43.3281 183.864L141.824 85.512L162.744 106.424L184.024 0L77.6001 21.288L98.5041 42.2L0.0161133 140.536L11.3281 151.864L121.152 42.2L110.056 31.112ZM468.608 375.872L479.92 364.56L491.232 375.872L479.92 387.184L468.608 375.872ZM445.992 398.488L457.304 387.176L468.616 398.488L457.304 409.8L445.992 398.488Z" fill="url(#paint3_linear_15339_117)"/>
<path d="M423.92 420.536L434.664 409.8L445.976 421.112L435.232 431.848L423.92 420.536ZM44.688 47.8559L56 36.5439L67.312 47.8559L56 59.1679L44.688 47.8559ZM0 92.5279L10.744 81.7919L22.056 93.1039L11.312 103.84L0 92.5279ZM22.072 70.4799L33.384 59.1679L44.696 70.4799L33.384 81.7919L22.072 70.4799Z" fill="url(#paint4_linear_15339_117)"/>
<defs>
<linearGradient id="paint0_linear_15339_117" x1="334.738" y1="86.6443" x2="97.4693" y2="258.442" gradientUnits="userSpaceOnUse">
<stop stop-color="#1151F5"/>
<stop offset="1" stop-color="#DD09FF"/>
</linearGradient>
<linearGradient id="paint1_linear_15339_117" x1="414.738" y1="48.8031" x2="236.366" y2="229.617" gradientUnits="userSpaceOnUse">
<stop stop-color="#1151F5"/>
<stop offset="1" stop-color="#DD09FF"/>
</linearGradient>
<linearGradient id="paint2_linear_15339_117" x1="417.866" y1="30.4325" x2="73.0137" y2="380.006" gradientUnits="userSpaceOnUse">
<stop stop-color="#1151F5"/>
<stop offset="1" stop-color="#DD09FF"/>
</linearGradient>
<linearGradient id="paint3_linear_15339_117" x1="428.002" y1="28.5" x2="80.5015" y2="397.989" gradientUnits="userSpaceOnUse">
<stop stop-color="#1151F5"/>
<stop offset="1" stop-color="#DD09FF"/>
</linearGradient>
<linearGradient id="paint4_linear_15339_117" x1="388.494" y1="60.5964" x2="97.2961" y2="393.618" gradientUnits="userSpaceOnUse">
<stop stop-color="#1151F5"/>
<stop offset="1" stop-color="#DD09FF"/>
</linearGradient>
</defs>
</svg>
