<svg width="496" height="496" viewBox="0 0 496 496" fill="none" xmlns="http://www.w3.org/2000/svg">
<path d="M416 176H432V192H416V176ZM416 208H432V224H416V208ZM416 144H432V160H416V144ZM336 32H368V48H336V32ZM320 448H384V464H320V448ZM416 352H432V368H416V352ZM272 352H400V368H272V352ZM272 320H432V336H272V320ZM144 200V184H128V200H112V312H128V328H144V312C161.648 312 176 297.648 176 280C176.002 275.457 175.035 270.967 173.163 266.828C171.291 262.689 168.557 258.998 165.144 256C168.557 253.002 171.291 249.311 173.163 245.172C175.035 241.033 176.002 236.543 176 232C176 214.352 161.648 200 144 200ZM144 296H128V264H144C152.824 264 160 271.176 160 280C160 288.824 152.824 296 144 296ZM144 248H128V216H144C152.824 216 160 223.176 160 232C160 240.824 152.824 248 144 248ZM79.9998 256H63.9998C63.9714 266.226 66.1353 276.34 70.3457 285.659C74.5561 294.978 80.7151 303.286 88.4078 310.024L98.9358 297.976C92.9682 292.735 88.1911 286.277 84.925 279.037C81.659 271.797 79.9797 263.942 79.9998 256ZM87.4878 228L73.6318 220C70.3755 225.641 67.9021 231.7 66.2798 238.008L81.7838 241.992C83.0329 237.088 84.9523 232.38 87.4878 228Z" fill="url(#paint0_linear_15339_129)"/>
<path d="M456 0H248C225.944 0 208 17.944 208 40V140.832C186.447 127.232 161.485 120.01 136 120C61.008 120 0 181.008 0 256C0 330.992 61.008 392 136 392C162.456 392 187.088 384.288 208 371.168V456C208 478.056 225.944 496 248 496H456C478.056 496 496 478.056 496 456V40C496 17.944 478.056 0 456 0ZM248 16H456C469.232 16 480 26.768 480 40V64H420.688L404.688 80H307.312L291.312 64H224V40C224 26.768 234.768 16 248 16ZM255.936 320C266.16 300.912 272 279.128 272 256C272 232.872 266.16 211.088 255.936 192H256V128H448V384H256V320H255.936ZM136 344C87.48 344 48 304.52 48 256C48 207.48 87.48 168 136 168C184.52 168 224 207.48 224 256C224 304.52 184.52 344 136 344ZM203.576 177.112C186.858 162.738 165.984 154.083 144 152.408V136.408C170.221 138.134 195.139 148.466 214.888 165.8L203.576 177.112ZM128 152.408C106.016 154.081 85.1412 162.737 68.424 177.112L57.112 165.8C76.8611 148.466 101.779 138.134 128 136.408V152.408ZM57.112 188.424C42.7367 205.141 34.0809 226.016 32.408 248H16.408C18.134 221.779 28.4657 196.861 45.8 177.112L57.112 188.424ZM32.408 264C34.0809 285.984 42.7367 306.859 57.112 323.576L45.8 334.888C28.4626 315.141 18.1305 290.222 16.408 264H32.408ZM68.424 334.888C85.1421 349.262 106.016 357.917 128 359.592V375.592C101.779 373.866 76.8611 363.534 57.112 346.2L68.424 334.888ZM144 359.592C165.984 357.919 186.859 349.263 203.576 334.888L214.888 346.2C195.139 363.534 170.221 373.866 144 375.592V359.592ZM226.2 334.888L214.888 323.576C229.262 306.858 237.917 285.984 239.592 264H255.592C253.87 290.222 243.537 315.141 226.2 334.888ZM255.592 248H239.592C237.919 226.016 229.263 205.141 214.888 188.424L226.2 177.112C243.537 196.859 253.87 221.778 255.592 248ZM240 343.456V400H464V112H240V168.544C235.121 162.761 229.769 157.393 224 152.496V80H284.688L300.688 96H411.312L427.312 80H480V416H224V359.504C229.769 354.607 235.121 349.239 240 343.456ZM456 480H248C234.768 480 224 469.232 224 456V432H480V456C480 469.232 469.232 480 456 480Z" fill="url(#paint1_linear_15339_129)"/>
<path d="M384 32H400V48H384V32ZM304 32H320V48H304V32ZM320 288H336V272H352V288H368V272C385.648 272 400 257.648 400 240C399.986 235.441 398.991 230.938 397.084 226.797C395.176 222.656 392.4 218.974 388.944 216C392.4 213.026 395.176 209.344 397.084 205.203C398.991 201.062 399.986 196.559 400 192C400 174.352 385.648 160 368 160V144H352V160H336V144H320V160H304V272H320V288ZM320 176H368C376.824 176 384 183.176 384 192C384 200.824 376.824 208 368 208H320V176ZM368 224C376.824 224 384 231.176 384 240C384 248.824 376.824 256 368 256H320V224H368Z" fill="url(#paint2_linear_15339_129)"/>
<defs>
<linearGradient id="paint0_linear_15339_129" x1="399.726" y1="45.9355" x2="57.9677" y2="381.65" gradientUnits="userSpaceOnUse">
<stop stop-color="#2311F5"/>
<stop offset="1" stop-color="#DB0DFC"/>
</linearGradient>
<linearGradient id="paint1_linear_15339_129" x1="452.5" y1="16" x2="64" y2="464" gradientUnits="userSpaceOnUse">
<stop stop-color="#2311F5"/>
<stop offset="1" stop-color="#DB0DFC"/>
</linearGradient>
<linearGradient id="paint2_linear_15339_129" x1="391.581" y1="40.2581" x2="243.996" y2="104.079" gradientUnits="userSpaceOnUse">
<stop stop-color="#2311F5"/>
<stop offset="1" stop-color="#DB0DFC"/>
</linearGradient>
</defs>
</svg>
