<svg width="1903" height="840" viewBox="0 0 1903 840" fill="none" xmlns="http://www.w3.org/2000/svg">
<g clip-path="url(#clip0_15336_6)">
<path d="M1940.04 838.989C1940.04 838.989 1636.48 840 1600.92 787.803C1584.07 764.227 1575.12 737.748 1575.12 737.748L1569.31 724.41C1569.17 724.125 1569.05 723.84 1568.93 723.546L1568.53 722.734C1568.48 722.63 1568.43 722.529 1568.37 722.431C1565.43 716.662 1560.82 712.109 1555.27 709.473C1555.05 709.36 1554.81 709.257 1554.58 709.162C1553.77 708.802 1552.95 708.491 1552.11 708.229C1551.27 707.948 1550.41 707.721 1549.55 707.546C1544.96 706.554 1540.22 706.809 1535.74 708.289C1535.06 708.505 1534.36 708.756 1533.7 709.041C1532.82 709.421 1531.94 709.836 1531.07 710.285C1529.38 711.206 1527.77 712.308 1526.27 713.576C1522.72 716.529 1519.83 720.333 1517.84 724.695C1517.69 724.992 1517.55 725.298 1517.42 725.61C1517.42 725.61 1510.52 739.303 1509.12 743.079L1508.78 743.943L1504.57 755.173L1500.49 764.503C1500.07 765.462 1499.65 766.404 1499.21 767.337C1499.21 767.36 1499.21 767.383 1499.21 767.406C1498.77 768.27 1498.34 769.22 1497.87 770.128C1497.7 770.464 1497.53 770.81 1497.35 771.138C1487.47 790.419 1472.07 805.626 1453.49 814.42C1452.7 814.791 1451.91 815.154 1451.12 815.491C1448.39 816.649 1445.66 817.694 1442.89 818.584C1440.13 819.474 1437.15 820.312 1434.25 820.899C1418.89 824.189 1403.02 823.329 1388.03 818.394C1385.79 817.668 1383.53 816.839 1381.35 815.923L1381.2 815.863C1374.94 812.91 1368.84 809.546 1362.95 805.789C1360.15 804.027 1357.41 802.173 1354.72 800.226C1353.27 799.172 1351.83 798.101 1350.4 796.995L1349.47 796.269C1334.64 784.773 1322.14 770.07 1312.76 753.074C1311.91 751.579 1311.09 750.033 1310.29 748.487L1264.69 659.954L1254.39 636.352C1254.17 635.851 1253.95 635.35 1253.71 634.866C1253.48 634.374 1253.25 633.89 1253.01 633.423C1252.91 633.251 1252.83 633.06 1252.73 632.888C1247.52 622.7 1239.38 614.665 1229.57 610.02L1228.33 609.459C1226.89 608.845 1225.45 608.301 1223.99 607.834C1222.52 607.368 1220.96 606.97 1219.44 606.599C1211.32 604.865 1202.94 605.322 1195.02 607.929C1193.82 608.318 1192.64 608.793 1191.42 609.26C1189.83 609.916 1188.29 610.657 1186.79 611.48C1176.15 617.253 1167.63 626.813 1162.63 638.581C1162.63 638.581 1159.47 644.896 1155.99 651.997C1152.7 658.762 1149.17 666.191 1147.94 669.465L1147.38 670.951L1145.26 676.575L1136.32 697.058C1135.69 698.501 1135.06 699.927 1134.39 701.326C1134.37 701.358 1134.35 701.392 1134.34 701.43C1133.69 702.786 1133.03 704.16 1132.34 705.516C1132.08 706.034 1131.81 706.544 1131.54 707.045C1116.55 735.96 1093.53 759.208 1065.41 772.313C1064.27 772.857 1063.04 773.402 1061.89 773.903C1057.78 775.674 1053.66 777.246 1049.48 778.576C1045.16 779.976 1040.83 781.168 1036.47 782.032C1016.25 786.368 995.417 785.935 975.363 780.762L936.783 761.247C929.071 757.338 921.631 752.819 914.524 747.726C897.421 735.442 882.19 720.307 869.387 702.873C857.977 687.534 848.648 670.484 841.687 652.248L793.763 525.029L766.951 453.887L765.668 450.431C759.903 435.105 731.997 379.66 731.997 379.66C720.542 352.714 701.025 330.821 676.654 317.58C673.193 315.705 669.646 314.003 666.043 312.491C663.326 311.377 660.563 310.349 657.783 309.451C639.646 303.476 620.444 302.435 601.854 306.418C598.353 307.161 594.885 308.086 591.409 309.217C588.067 310.289 584.757 311.55 581.455 312.967C580.513 313.381 579.554 313.831 578.62 314.254C556.06 324.768 537.585 343.428 525.565 366.624C525.359 367.021 525.145 367.436 524.939 367.85C524.377 368.939 523.854 370.027 523.355 371.142C523.358 371.165 523.358 371.188 523.355 371.211C522.825 372.343 522.31 373.483 521.772 374.667L498.174 428.73L393.647 631.557C391.818 635.108 389.941 638.633 388.001 642.097C366.474 681.022 337.841 714.703 303.881 741.048C303.16 741.593 302.455 742.146 301.735 742.707C298.472 745.224 295.17 747.686 291.828 750.094C271.521 764.732 250.017 777.292 227.592 787.613C201.805 799.508 175.02 808.64 147.613 814.878C134.943 817.809 122.067 820.171 108.985 821.962L-14 838.989H1940.04Z" fill="url(#paint0_linear_15336_6)"/>
<path opacity="0.4" d="M1608.42 838.989L1384.11 840H1367.24L998.557 839.136L189.693 838.082H159.087L96.6006 838.333L107.853 816.286L121.956 788.641C134.373 764.356 155.547 748.34 182.083 744.677C183.073 744.556 184.079 744.435 185.076 744.331C192.341 743.596 199.655 743.66 206.908 744.521C219.04 746.003 230.928 749.29 242.241 754.292L244.055 755.087C249.853 757.711 255.506 760.703 260.985 764.045C279.863 772.235 299.407 775.95 318.15 774.006C319.156 773.911 320.161 773.79 321.151 773.652C340.829 771 357.577 761.557 369.946 747.001L404.108 680.532L491.213 511.5C494.36 505.38 498.17 499.695 502.561 494.568C514.946 480.184 531.678 470.905 551.332 468.409C552.322 468.288 553.328 468.167 554.333 468.072C562.395 467.35 570.504 467.591 578.517 468.789C587.116 470.088 595.578 472.296 603.786 475.38C603.817 475.391 603.85 475.391 603.881 475.38C606.201 476.244 608.497 477.169 610.794 478.18C627.249 484.322 644.052 487.009 660.27 485.497C661.276 485.402 662.273 485.298 663.263 485.16C673.616 483.941 683.659 480.569 692.847 475.225C700.005 471.027 706.495 465.595 712.066 459.139C712.763 458.327 713.436 457.524 714.093 456.668L715.582 453.835L757.662 372.904L797.406 294.591L820.711 250.005C823.356 244.918 826.476 240.144 830.023 235.759C842.582 220.166 860.067 210.24 880.838 207.838L883.823 207.544C890.448 207.013 897.103 207.137 903.707 207.916C919.029 209.704 934.534 214.827 949.493 222.663C950.649 223.239 951.81 223.863 952.977 224.537C957.021 226.789 961.014 229.234 964.958 231.872C966.927 232.839 968.915 233.744 970.921 234.584C973.486 235.656 976.099 236.623 978.721 237.479C995.855 243.115 1013.99 244.096 1031.55 240.338C1034.86 239.638 1038.14 238.757 1041.42 237.695C1044.59 236.675 1047.72 235.494 1050.83 234.153C1051.72 233.764 1052.62 233.358 1053.5 232.934C1062.06 228.943 1070.08 223.688 1077.32 217.315C1082.87 210.888 1088.82 204.028 1095.27 197.255C1095.29 197.24 1095.3 197.219 1095.32 197.195C1106.02 185.964 1118.08 174.88 1131.79 166.276C1131.85 166.248 1131.91 166.213 1131.96 166.172C1140.74 160.598 1150.15 156.31 1159.95 153.421C1161.31 153.015 1162.68 152.669 1164.06 152.332L1166.36 151.814L1166.68 151.762C1167.35 151.615 1168.03 151.477 1168.71 151.347C1169.69 151.166 1170.65 150.993 1171.63 150.829C1172.6 150.665 1173.39 150.561 1174.27 150.44C1176.43 150.172 1178.62 149.965 1180.85 149.844C1183.32 149.714 1185.78 149.628 1188.22 149.594C1188.27 149.576 1188.32 149.576 1188.38 149.594C1191.15 149.594 1193.92 149.766 1196.67 150.008L1199.12 150.267C1205.92 151.063 1212.64 152.541 1219.2 154.682C1221.82 155.546 1224.43 156.505 1226.99 157.567C1229 158.408 1230.99 159.312 1232.96 160.28C1234.33 160.945 1235.67 161.636 1237.01 162.362C1240.94 164.489 1244.75 166.869 1248.42 169.489C1250.8 171.217 1253.17 173.005 1255.46 174.923C1270 187.058 1281.61 202.874 1289.29 221.004C1289.29 221.004 1399.16 587.075 1608.42 838.989Z" fill="url(#paint1_linear_15336_6)"/>
<path d="M799.6 59.0825H817.068V70.5206H799.6V59.0825Z" fill="#AF0000"/>
<path d="M838.053 1.90923V112.489C838.053 112.995 838.237 113.481 838.565 113.839C838.894 114.197 839.339 114.398 839.803 114.398C840.267 114.398 840.712 114.197 841.04 113.839C841.368 113.481 841.553 112.995 841.553 112.489V1.90923C841.553 1.40287 841.368 0.91725 841.04 0.5592C840.712 0.20115 840.267 0 839.803 0C839.339 0 838.894 0.20115 838.565 0.5592C838.237 0.91725 838.053 1.40287 838.053 1.90923Z" fill="#454D77"/>
<path d="M799.6 7.61963H838.029V62.8922H799.6V7.61963Z" fill="url(#paint2_linear_15336_6)"/>
<path d="M745.443 17.1484L764.662 47.6443L745.443 78.1401H810.084C811.896 78.0735 813.615 77.2411 814.875 75.8186C816.136 74.3961 816.841 72.4948 816.841 70.5161C816.841 68.5374 816.136 66.6361 814.875 65.2136C813.615 63.7911 811.896 62.9587 810.084 62.8922H799.599V17.1484H745.443Z" fill="#FC0A0A"/>
<path d="M810.084 62.8923H799.6V78.1402H810.084C811.897 78.0737 813.615 77.2413 814.876 75.8188C816.136 74.3963 816.841 72.495 816.841 70.5163C816.841 68.5376 816.136 66.6363 814.876 65.2138C813.615 63.7913 811.897 62.9589 810.084 62.8923Z" fill="#AF0000"/>
<path opacity="0.7" d="M1454.3 166.639C1443.83 144.721 1433.44 130.355 1418.49 117.854C1412.39 112.737 1405.85 108.276 1398.96 104.532C1395.51 102.658 1391.95 100.956 1388.35 99.4614C1385.64 98.3296 1382.88 97.3016 1380.1 96.3945C1366.13 91.81 1351.51 90.125 1336.98 91.4271C1332.67 91.8105 1328.39 92.4595 1324.16 93.3708C1320.67 94.1138 1317.19 95.0382 1313.72 96.1699C1310.38 97.2411 1307.06 98.5024 1303.76 99.9106C1302.82 100.325 1301.86 100.774 1300.93 101.198C1278.37 111.72 1259.9 130.372 1247.88 153.576C1247.66 153.974 1247.46 154.388 1247.24 154.803C1246.68 155.892 1211.88 224.451 1211.47 225.134C1197.25 249.807 1176.52 269.204 1152.01 280.769C1150.89 281.287 1149.77 281.806 1148.64 282.298C1145.91 283.473 1143.18 284.544 1140.42 285.52C1139.22 285.944 1138.04 286.384 1136.8 286.747C1132.71 288.077 1128.57 289.19 1124.38 290.082C1102.28 294.813 1079.44 293.58 1057.87 286.488C1054.55 285.411 1051.28 284.193 1048.04 282.834C1043.75 281.053 1039.54 279.035 1035.43 276.786C1006.87 261.315 983.902 235.826 970.208 204.408C969.825 203.528 969.502 202.619 969.241 201.687C969.146 201.393 969.107 201.229 969.107 201.229C969.11 201.198 969.11 201.166 969.107 201.134C955.499 169.118 932.297 143.116 903.326 127.417C899.22 125.17 895.013 123.152 890.72 121.37C887.478 120.017 884.202 118.796 880.892 117.707C868.118 113.52 854.859 111.358 841.521 111.288C840.396 111.288 839.256 111.288 838.116 111.331C830.137 111.504 822.188 112.438 814.359 114.122C810.202 114.986 806.069 116.109 801.935 117.456C797.97 118.729 794.027 120.209 790.104 121.897C788.964 122.398 787.856 122.916 786.739 123.426C759.903 135.935 737.936 158.12 723.627 185.705C723.374 186.189 723.128 186.681 722.883 187.182C722.21 188.461 721.584 189.774 720.966 191.078C720.966 191.078 720.927 191.139 720.927 191.165C720.285 192.512 719.668 193.886 719.082 195.251L709.516 217.168C709.294 217.678 709.057 218.17 708.795 218.654C707.211 221.583 705.715 224.598 704.329 227.699L658.298 330.504L650.339 348.257L606.826 445.585L566.742 535.301C566.575 535.673 566.401 536.044 566.203 536.415L520.441 625.061C507.312 650.52 484.878 667.262 456.806 670.994C455.745 671.115 454.692 671.236 453.639 671.331C443.123 672.339 432.532 671.808 422.146 669.75C411.894 667.759 401.866 664.573 392.237 660.248C391.437 659.894 390.662 659.478 389.917 659.003C383.639 655.067 377.141 651.564 370.461 648.516C363.455 645.322 356.242 642.698 348.882 640.663C335.501 636.882 321.628 635.608 307.855 636.896C306.794 636.991 305.733 637.121 304.688 637.268C276.569 641.017 254.151 657.872 240.982 683.487L213.346 737.446L188.457 786.153L178.63 805.392C177.019 808.559 176.188 812.128 176.22 815.75C176.251 819.372 177.142 822.923 178.807 826.056C180.473 829.19 182.854 831.799 185.72 833.628C188.585 835.457 191.837 836.444 195.156 836.493L1051.45 837.521L1195.66 838.54H1440.42C1440.86 838.54 1441.32 838.54 1441.74 838.48C1451.73 837.737 1880.06 838.937 1880.06 838.937C1786.62 817.063 1759.05 777.151 1733.16 746.768C1524.85 502.265 1501.64 282.851 1454.3 166.639Z" fill="url(#paint3_linear_15336_6)"/>
<path d="M1136 127.562C1149.51 127.562 1160.47 117.013 1160.47 104C1160.47 90.9868 1149.51 80.4375 1136 80.4375C1122.49 80.4375 1111.53 90.9868 1111.53 104C1111.53 117.013 1122.49 127.562 1136 127.562Z" fill="#42A5F5"/>
<path d="M1136 128.375C1122.04 128.375 1110.69 117.439 1110.69 104C1110.69 90.5612 1122.04 79.625 1136 79.625C1149.96 79.625 1161.31 90.5612 1161.31 104C1161.31 117.439 1149.96 128.375 1136 128.375ZM1136 81.25C1122.97 81.25 1112.38 91.455 1112.38 104C1112.38 116.545 1122.97 126.75 1136 126.75C1149.03 126.75 1159.62 116.545 1159.62 104C1159.62 91.455 1149.03 81.25 1136 81.25Z" fill="#455A64"/>
<path d="M1138.06 112.938H1133.94C1131.36 112.938 1129.25 110.906 1129.25 108.42V108.062C1129.25 107.607 1129.62 107.25 1130.09 107.25C1130.57 107.25 1130.94 107.607 1130.94 108.062V108.42C1130.94 110.012 1132.29 111.312 1133.94 111.312H1138.06C1139.71 111.312 1141.06 110.012 1141.06 108.42C1141.06 107.136 1140.17 105.999 1138.89 105.641L1132.66 103.935C1130.65 103.366 1129.25 101.579 1129.25 99.58C1129.25 97.0937 1131.36 95.0625 1133.94 95.0625H1138.06C1140.64 95.0625 1142.75 97.0937 1142.75 99.58V99.9375C1142.75 100.393 1142.38 100.75 1141.91 100.75C1141.43 100.75 1141.06 100.393 1141.06 99.9375V99.58C1141.06 97.9875 1139.71 96.6875 1138.06 96.6875H1133.94C1132.29 96.6875 1130.94 97.9875 1130.94 99.58C1130.94 100.864 1131.83 102.001 1133.11 102.359L1139.34 104.065C1141.35 104.618 1142.75 106.405 1142.75 108.404C1142.75 110.906 1140.64 112.938 1138.06 112.938Z" fill="white"/>
<path d="M1136 116.188C1135.53 116.188 1135.16 115.83 1135.16 115.375V112.125C1135.16 111.67 1135.53 111.312 1136 111.312C1136.47 111.312 1136.84 111.67 1136.84 112.125V115.375C1136.84 115.83 1136.47 116.188 1136 116.188Z" fill="white"/>
<path d="M1136 96.6875C1135.53 96.6875 1135.16 96.33 1135.16 95.875V92.625C1135.16 92.17 1135.53 91.8125 1136 91.8125C1136.47 91.8125 1136.84 92.17 1136.84 92.625V95.875C1136.84 96.33 1136.47 96.6875 1136 96.6875Z" fill="white"/>
<path d="M1130.09 120.884C1129.99 120.884 1129.91 120.868 1129.81 120.835C1122.42 118.316 1117.44 111.54 1117.44 104C1117.44 96.4601 1122.42 89.6839 1129.81 87.1651C1130.25 87.0189 1130.72 87.2301 1130.89 87.6526C1131.04 88.0751 1130.82 88.5464 1130.38 88.6926C1123.65 90.9839 1119.12 97.1426 1119.12 104C1119.12 110.858 1123.65 117.016 1130.38 119.308C1130.82 119.454 1131.06 119.925 1130.89 120.348C1130.77 120.673 1130.45 120.884 1130.09 120.884Z" fill="white"/>
<path d="M1141.91 120.884C1141.55 120.884 1141.23 120.673 1141.11 120.348C1140.96 119.925 1141.18 119.454 1141.62 119.308C1148.35 117.016 1152.88 110.858 1152.88 104C1152.88 97.1425 1148.35 90.9838 1141.62 88.6925C1141.18 88.5463 1140.94 88.075 1141.11 87.6525C1141.27 87.23 1141.75 87.0025 1142.19 87.165C1149.58 89.6838 1154.56 96.46 1154.56 104C1154.56 111.54 1149.58 118.316 1142.19 120.835C1142.09 120.868 1142.01 120.884 1141.91 120.884Z" fill="white"/>
<path d="M532 169.281C547.015 169.281 559.188 157.515 559.188 143C559.188 128.485 547.015 116.719 532 116.719C516.985 116.719 504.812 128.485 504.812 143C504.812 157.515 516.985 169.281 532 169.281Z" fill="#FFB74D"/>
<path d="M544.45 139.629C545.012 136.004 542.162 134.064 538.262 132.759L539.519 127.866L536.425 127.122L535.187 131.889C534.381 131.69 533.537 131.509 532.712 131.328L533.95 126.524L530.894 125.781L529.637 130.675C528.962 130.53 523.412 129.189 523.412 129.189L522.587 132.379C522.587 132.379 524.875 132.886 524.837 132.922C526.094 133.231 526.319 134.028 526.281 134.662L522.812 148.093C522.662 148.456 522.269 149.017 521.406 148.8C521.444 148.836 519.156 148.256 519.156 148.256L517.619 151.682C517.619 151.682 523.112 153.023 523.844 153.204L522.569 158.171L525.644 158.914L526.919 154.002C527.762 154.219 528.587 154.419 529.375 154.618L528.119 159.494L531.212 160.237L532.487 155.289C537.756 156.249 541.712 155.869 543.381 151.265C544.731 147.567 543.325 145.429 540.55 144.033C542.519 143.562 544.037 142.275 544.45 139.629ZM537.4 149.181C536.444 152.878 529.994 150.884 527.894 150.377L529.581 143.816C531.681 144.323 538.394 145.32 537.4 149.181ZM538.356 139.574C537.494 142.946 532.112 141.224 530.369 140.807L531.906 134.844C533.65 135.279 539.256 136.058 538.356 139.574Z" fill="white"/>
<path d="M531.381 160.454C531.306 160.454 531.231 160.454 531.156 160.436C530.65 160.309 530.35 159.82 530.463 159.349L531.55 155.071C531.663 154.6 532.15 154.31 532.638 154.401C538.431 155.452 541.188 154.491 542.463 150.957C543.531 148.039 542.819 146.19 540.081 144.831C539.725 144.649 539.538 144.287 539.575 143.906C539.631 143.526 539.913 143.218 540.288 143.145C542.181 142.728 543.194 141.568 543.513 139.52C543.925 136.874 542.2 135.061 537.944 133.648C537.494 133.503 537.231 133.031 537.344 132.578L538.394 128.5C538.525 128.011 539.031 127.721 539.519 127.829C540.025 127.956 540.325 128.446 540.213 128.917L539.369 132.216C541.713 133.068 546.1 135.098 545.369 139.792C545.05 141.858 544.075 143.363 542.538 144.233C544.788 145.991 545.35 148.456 544.225 151.573C542.313 156.848 537.663 157.047 533.163 156.34L532.281 159.802C532.188 160.183 531.794 160.454 531.381 160.454ZM525.831 159.113C525.756 159.113 525.681 159.113 525.606 159.095C525.1 158.968 524.8 158.479 524.913 158.008L525.981 153.766C526.038 153.531 526.206 153.331 526.413 153.204C526.638 153.078 526.881 153.041 527.144 153.114C527.988 153.331 528.794 153.531 529.581 153.73C530.088 153.857 530.388 154.346 530.256 154.836C530.125 155.325 529.619 155.615 529.113 155.488C528.606 155.361 528.081 155.234 527.556 155.108L526.713 158.443C526.638 158.841 526.244 159.113 525.831 159.113ZM523.825 154.093C523.75 154.093 523.675 154.093 523.6 154.056C522.869 153.875 517.375 152.534 517.375 152.534C517.113 152.479 516.888 152.298 516.756 152.063C516.644 151.827 516.625 151.537 516.738 151.301L518.275 147.876C518.463 147.459 518.931 147.241 519.381 147.368C519.381 147.368 521.069 147.803 521.463 147.876C521.519 147.876 521.556 147.894 521.613 147.894C521.781 147.93 521.838 147.948 521.931 147.731L525.363 134.427C525.363 134.209 525.25 133.938 524.613 133.793C524.556 133.774 524.5 133.756 524.444 133.738C524.031 133.611 522.381 133.267 522.381 133.267C522.138 133.213 521.931 133.068 521.8 132.85C521.669 132.651 521.631 132.397 521.688 132.161L522.513 128.971C522.569 128.736 522.719 128.536 522.944 128.409C523.169 128.283 523.413 128.246 523.656 128.301C523.656 128.301 529.188 129.642 529.863 129.787C530.369 129.896 530.688 130.385 530.575 130.874C530.463 131.364 529.956 131.672 529.45 131.563C528.944 131.454 525.719 130.675 524.125 130.294L523.769 131.708C524.425 131.853 524.856 131.962 525.138 132.053C526.544 132.397 527.331 133.394 527.238 134.717L523.75 148.311C523.281 149.471 522.325 149.96 521.2 149.688C520.881 149.634 520.413 149.525 519.719 149.344L518.95 151.066C520.581 151.464 523.581 152.189 524.106 152.316C524.613 152.443 524.913 152.933 524.781 153.422C524.631 153.821 524.238 154.093 523.825 154.093ZM533.594 152.28C531.663 152.28 529.6 151.754 528.25 151.41L527.669 151.265C527.425 151.211 527.219 151.066 527.088 150.848C526.956 150.649 526.919 150.395 526.975 150.159L527.913 146.516C528.044 146.027 528.55 145.737 529.056 145.864C529.563 145.991 529.863 146.48 529.731 146.969L529.019 149.743C530.819 150.196 534.081 150.957 535.656 150.069C536.088 149.833 536.331 149.489 536.463 148.981C536.613 148.438 536.538 147.984 536.275 147.549C535.281 145.991 531.794 145.248 530.125 144.885C529.825 144.813 529.563 144.758 529.338 144.704C528.831 144.577 528.531 144.088 528.663 143.598C528.794 143.109 529.3 142.819 529.806 142.946L530.538 143.109C532.75 143.598 536.463 144.396 537.869 146.589C538.413 147.441 538.544 148.383 538.281 149.398C538.038 150.377 537.456 151.12 536.613 151.609C535.769 152.099 534.7 152.28 533.594 152.28ZM534.981 142.529C533.388 142.529 531.719 142.094 530.65 141.822L530.144 141.695C529.9 141.641 529.694 141.496 529.563 141.278C529.431 141.079 529.394 140.825 529.45 140.589L530.238 137.544C530.369 137.055 530.875 136.765 531.381 136.892C531.888 137.019 532.188 137.508 532.056 137.998L531.494 140.173C532.956 140.535 535.431 141.097 536.706 140.372C537.081 140.154 537.325 139.828 537.438 139.357C537.569 138.849 537.513 138.433 537.269 138.034C536.444 136.765 533.781 136.185 532.338 135.877L531.663 135.732C531.156 135.605 530.856 135.116 530.988 134.626C531.119 134.137 531.625 133.847 532.131 133.974L532.75 134.119C534.588 134.518 537.644 135.17 538.881 137.091C539.388 137.889 539.519 138.813 539.275 139.792C539.031 140.734 538.488 141.459 537.663 141.931C536.875 142.366 535.938 142.529 534.981 142.529ZM535.206 132.796C535.131 132.796 535.056 132.796 534.981 132.759C534.175 132.56 533.35 132.379 532.525 132.198C532.281 132.143 532.075 131.998 531.925 131.799C531.794 131.599 531.756 131.346 531.813 131.11L532.825 127.123C532.956 126.633 533.463 126.343 533.95 126.452C534.456 126.579 534.756 127.068 534.644 127.539L533.875 130.657C534.4 130.766 534.925 130.893 535.431 131.019C535.938 131.146 536.238 131.636 536.106 132.125C536.013 132.524 535.638 132.796 535.206 132.796Z" fill="#455A64"/>
<path d="M532 170.188C516.494 170.188 503.875 157.989 503.875 143C503.875 128.011 516.494 115.812 532 115.812C547.506 115.812 560.125 128.011 560.125 143C560.125 157.989 547.506 170.188 532 170.188ZM532 117.625C517.525 117.625 505.75 129.008 505.75 143C505.75 156.992 517.525 168.375 532 168.375C546.475 168.375 558.25 156.992 558.25 143C558.25 129.008 546.475 117.625 532 117.625Z" fill="#455A64"/>
<path d="M922.7 56.2184C922.973 56.8309 922.844 57.5506 922.398 58.01L903.007 77.9469C902.446 78.5288 901.555 78.5288 900.994 77.9469L881.602 58.01C881.157 57.5506 881.027 56.8309 881.3 56.2184L888.473 40.2475C888.718 39.6962 889.221 39.3594 889.796 39.3594H914.205C914.78 39.3594 915.283 39.6962 915.527 40.2475L922.7 56.2184Z" fill="#1AD2A4"/>
<path d="M902 79.1566C901.454 79.1566 900.922 78.9422 900.491 78.4981L881.099 58.5613C880.438 57.8722 880.251 56.8003 880.653 55.8969L887.826 39.9106C888.186 39.0991 888.948 38.5938 889.796 38.5938H914.205C915.053 38.5938 915.815 39.0991 916.174 39.9259L923.347 55.8969C923.75 56.8003 923.563 57.8722 922.901 58.5766L903.51 78.4981C903.078 78.9422 902.546 79.1566 902 79.1566ZM889.796 40.125C889.494 40.125 889.25 40.2934 889.12 40.5691L881.947 56.5553C881.818 56.8616 881.875 57.2291 882.105 57.4741L901.497 77.4109C901.785 77.7019 902.23 77.7019 902.503 77.4109L921.895 57.4741C922.125 57.2444 922.183 56.8616 922.053 56.5553L914.88 40.5844C914.751 40.2934 914.506 40.125 914.205 40.125H889.796Z" fill="#455A64"/>
<path d="M902 60.0313C896.926 60.0313 888.344 59.2198 888.344 56.2032C888.344 53.2326 896.638 52.5741 899.182 52.4516C899.628 52.421 899.916 52.7579 899.93 53.1866C899.944 53.6154 899.643 53.9676 899.254 53.9829C892.973 54.3045 889.939 55.6213 889.781 56.2185C889.997 56.9995 894.381 58.5001 902 58.5001C909.619 58.5001 914.003 56.9995 914.219 56.1879C914.061 55.6213 911.056 54.3198 904.832 53.9829C904.429 53.9676 904.128 53.6001 904.156 53.1866C904.171 52.7732 904.473 52.4516 904.904 52.467C907.419 52.6048 915.656 53.2785 915.656 56.2185C915.656 59.2198 907.074 60.0313 902 60.0313Z" fill="white"/>
<path d="M911.344 47.7812H892.656C892.254 47.7812 891.938 47.4444 891.938 47.0156C891.938 46.5869 892.254 46.25 892.656 46.25H911.344C911.746 46.25 912.062 46.5869 912.062 47.0156C912.062 47.4444 911.746 47.7812 911.344 47.7812Z" fill="white"/>
<path d="M902 69.9844C901.597 69.9844 901.281 69.6475 901.281 69.2188V59.2656C901.281 58.8369 901.597 58.5 902 58.5C902.403 58.5 902.719 58.8369 902.719 59.2656V69.2188C902.719 69.6475 902.403 69.9844 902 69.9844Z" fill="white"/>
<path d="M902 56.9688C901.597 56.9688 901.281 56.6319 901.281 56.2031V47.0156C901.281 46.5869 901.597 46.25 902 46.25C902.403 46.25 902.719 46.5869 902.719 47.0156V56.2031C902.719 56.6319 902.403 56.9688 902 56.9688Z" fill="white"/>
<path d="M626 249.5C634.008 249.5 640.5 243.008 640.5 235C640.5 226.992 634.008 220.5 626 220.5C617.992 220.5 611.5 226.992 611.5 235C611.5 243.008 617.992 249.5 626 249.5Z" fill="#42A5F5"/>
<path d="M628.44 226.79C634.53 226.79 635.6 230.1 634.74 234.77C634.16 237.9 632.71 240.3 630.28 241.42C629.18 241.93 628.15 242.21 625.71 242.21H618.81L619.38 239L625.45 239.01C629.1 239.01 630.08 237.43 630.55 236.04C630.73 235.52 631.14 233.92 631.15 232.97C631.18 231.12 630.27 230 627.2 230L620.95 229.99L621.53 226.79H628.44Z" fill="white"/>
<path d="M618.54 232.89H625.63C625.63 232.89 625.55 233.27 625.33 234.2C625.16 234.92 624.9 236.1 623.08 236.1H616C616 236.1 616.07 235.72 616.3 234.78C616.47 234.07 616.73 232.89 618.54 232.89Z" fill="white"/>
<path d="M625.71 242.71H618.81C618.66 242.71 618.52 242.64 618.43 242.53C618.34 242.42 618.3 242.27 618.32 242.12L618.89 238.91C618.93 238.67 619.14 238.5 619.38 238.5L625.45 238.51C628.74 238.51 629.64 237.18 630.08 235.88C630.27 235.33 630.64 233.8 630.65 232.96C630.66 232.18 630.5 231.65 630.13 231.27C629.61 230.75 628.66 230.49 627.2 230.49L620.95 230.48C620.67 230.48 620.45 230.26 620.45 229.98C620.45 229.7 620.67 229.48 620.95 229.48L627.2 229.49C628.94 229.49 630.13 229.84 630.84 230.57C631.4 231.14 631.66 231.92 631.65 232.97C631.64 234.01 631.2 235.68 631.02 236.2C630.5 237.74 629.4 239.51 625.45 239.51L619.8 239.5L619.41 241.71H625.71C628.04 241.71 629.01 241.46 630.07 240.97C632.23 239.98 633.67 237.8 634.25 234.68C634.74 232.01 634.51 230.14 633.54 228.98C632.6 227.85 630.93 227.29 628.44 227.29H621.95L621.76 228.36C621.71 228.63 621.45 228.81 621.18 228.76C620.91 228.71 620.73 228.45 620.78 228.18L621.05 226.7C621.09 226.46 621.3 226.29 621.54 226.29H628.45C631.25 226.29 633.17 226.96 634.31 228.33C635.48 229.74 635.79 231.87 635.24 234.86C634.6 238.31 632.96 240.74 630.5 241.87C629.32 242.42 628.21 242.71 625.71 242.71Z" fill="#455A64"/>
<path d="M623.08 236.6H616C615.72 236.6 615.5 236.38 615.5 236.1C615.5 235.82 615.72 235.6 616 235.6H623.08C624.49 235.6 624.67 234.81 624.84 234.11C624.91 233.82 624.96 233.58 625.01 233.39H618.54C617.29 233.39 617.01 234.03 616.85 234.63C616.78 234.9 616.5 235.06 616.24 234.98C615.97 234.91 615.81 234.63 615.89 234.37C616.02 233.88 616.42 232.39 618.54 232.39H625.63C625.78 232.39 625.92 232.46 626.02 232.58C626.12 232.7 626.15 232.85 626.12 233C626.12 233 626.04 233.38 625.82 234.32C625.64 235.07 625.28 236.6 623.08 236.6Z" fill="#455A64"/>
<path d="M626 250C617.73 250 611 243.27 611 235C611 226.73 617.73 220 626 220C634.27 220 641 226.73 641 235C641 243.27 634.27 250 626 250ZM626 221C618.28 221 612 227.28 612 235C612 242.72 618.28 249 626 249C633.72 249 640 242.72 640 235C640 227.28 633.72 221 626 221Z" fill="#455A64"/>
</g>
<defs>
<linearGradient id="paint0_linear_15336_6" x1="-14" y1="571.517" x2="1940.04" y2="571.517" gradientUnits="userSpaceOnUse">
<stop stop-color="#1B86E2"/>
<stop offset="1" stop-color="#7A20D5"/>
</linearGradient>
<linearGradient id="paint1_linear_15336_6" x1="1168.52" y1="150" x2="852.508" y2="840" gradientUnits="userSpaceOnUse">
<stop stop-color="#0F61FF"/>
<stop offset="1" stop-color="#1E3A9D"/>
<stop offset="1.0001" stop-color="#002092"/>
</linearGradient>
<linearGradient id="paint2_linear_15336_6" x1="807.521" y1="37" x2="799.521" y2="37" gradientUnits="userSpaceOnUse">
<stop stop-color="#FB0505"/>
<stop offset="1" stop-color="#950303"/>
</linearGradient>
<linearGradient id="paint3_linear_15336_6" x1="1028.14" y1="91.0005" x2="1028.14" y2="838.937" gradientUnits="userSpaceOnUse">
<stop stop-color="#9F22DD"/>
<stop offset="1" stop-color="#1F90F1"/>
</linearGradient>
<clipPath id="clip0_15336_6">
<rect width="1955" height="840" fill="white" transform="translate(-52)"/>
</clipPath>
</defs>
</svg>
